<svg id="lock" xmlns="http://www.w3.org/2000/svg" xmlns:xlink="http://www.w3.org/1999/xlink" version="1.1" x="0px" y="0px" viewBox="0 0 100 125"><path d="M57.5,31.2v4.7H42.3v-4.7c0-4.2,3.4-7.6,7.6-7.6C54.1,23.5,57.5,27,57.5,31.2z M50.4,43.5c-1.6-0.3-3.2,0.6-3.9,2.1  c-0.7,1.5-0.2,3.3,1.2,4.3c0.3,0.2,0.3,0.4,0.3,0.7c0,1.5,0,3.1,0,4.6c0,0,0,0,0,0c0,1.3,1.3,2.2,2.7,1.5c0.6-0.3,0.9-0.9,0.9-1.6v0  c0-1.5,0-3.1,0-4.6c0-0.3,0.1-0.6,0.4-0.8c1-0.7,1.5-1.7,1.4-2.9C53.4,45.3,52.2,43.9,50.4,43.5z M92.9,13v54.2c0,6.1-4.9,11-11,11  H64.5L50,98L35.5,78.3H18.1c-6.1,0-11-4.9-11-11V13C7.1,7,12,2,18.1,2h63.8C88,2,92.9,7,92.9,13z M68.1,40.2c0-2.4-1.9-4.4-4.4-4.4  h-0.3v-4.7c0-7.5-6.1-13.5-13.5-13.5s-13.5,6.1-13.5,13.5v4.7h-0.1c-2.4,0-4.4,1.9-4.4,4.4v18.1c0,2.4,1.9,4.4,4.4,4.4h27.4  c2.4,0,4.4-1.9,4.4-4.4V40.2z"/>
<style>
#lock {
  transform:scale(.2);
  -webkit-transform:scale(.2);
  margin-top: -50px;
}
</style>
</svg>